# xmcd
#
# Track frame offsets:
#	150
#	12821
#	34726
#	56437
#	71115
#	89959
#	102405
#	113406
#	126475
#	141860
#	151134
#	170036
#	191180
#	204106
#	216937
#	229396
#	245510
#	257874
#	270405
#	281990
#
# Disc length: 4177 seconds
#
# Revision: 1
# Processed by: cddbd v1.5.2PL0 Copyright (c) Steve Scherf et al.
# Submitted via: audiograbber 1.83.01
#
DISCID=34104f14
DTITLE=100 Titres qui ont marqué l'histoire - RHYTHM and SOUL CD1
DYEAR=2010
DGENRE=compilation
TTITLE0=Stevie Wonder - force once in my life
TTITLE1=Marvin Gaye - let's get it on
TTITLE2=JAMES BROWN - say it loud I'm black and l'm Proud
TTITLE3=Al Green - Let's stay together
TTITLE4=Donny Hathaway - Someday We'll all be free
TTITLE5=Martha reeves and The vandellas - Heatwave
TTITLE6=Dusty Springfiel - Son of a preacher man
TTITLE7=Fondella Bass - Rescue me
TTITLE8=Commodores - Sweet love
TTITLE9=The O'jays - I should be your lover
TTITLE10=Carla Thomas - Sugar
TTITLE11=Bobby Byrd  - I know you got soul
TTITLE12=The Contours - Do you love me
TTITLE13=Mavis Staples - Chained
TTITLE14=Johnny Taylor - Who's marking love
TTITLE15=David Porter - Help
TTITLE16=Bobby Hebb - Sunny
TTITLE17=The Four Tops - It's the same old song
TTITLE18=Nina Simone - I put a spell on you
TTITLE19=The Temptations - Papa was a rollin' stone
EXTD=Du Rhythm'n'bleuse a la soul \n100 titres qui marqué l'histoire
EXTT0=
EXTT1=
EXTT2=
EXTT3=
EXTT4=
EXTT5=
EXTT6=
EXTT7=
EXTT8=
EXTT9=
EXTT10=
EXTT11=
EXTT12=
EXTT13=
EXTT14=
EXTT15=
EXTT16=
EXTT17=
EXTT18=
EXTT19=
PLAYORDER=
